<svg width="180" height="150" viewBox="0 0 180 150" fill="none" xmlns="http://www.w3.org/2000/svg">
<g clip-path="url(#clip0_35_24)">
<path d="M79.1989 1.86649L13.073 29.1595C9.39573 30.6775 9.43382 35.8885 13.1341 37.3515L79.536 63.6175C85.3703 65.9254 91.8674 65.9254 97.7017 63.6175L164.104 37.3505C167.804 35.8885 167.844 30.6785 164.164 29.1605L98.0404 1.86549C92.0078 -0.624557 85.2308 -0.624557 79.1981 1.86549" fill="#FCB400"/>
<path d="M94.5103 77.9596V143.577C94.5103 146.697 97.6653 148.835 100.573 147.685L174.565 119.037C175.391 118.71 176.099 118.144 176.597 117.412C177.096 116.679 177.363 115.814 177.362 114.929V49.3125C177.362 46.1917 174.208 44.0546 171.299 45.2046L97.3073 73.8525C96.4824 74.1792 95.7743 74.7454 95.2756 75.4779C94.7772 76.2104 94.5103 77.0754 94.5103 77.9608" fill="#18BFFF"/>
<path d="M77.2319 81.3467L55.273 91.9229L53.0432 92.9979L6.6888 115.153C3.75142 116.567 0 114.431 0 111.175V49.5888C0 48.4108 0.605521 47.3938 1.41756 46.6288C1.7507 46.2979 2.12864 46.015 2.54038 45.7888C3.64716 45.1258 5.22713 44.9488 6.57051 45.4788L76.8631 73.2608C80.4362 74.675 80.7169 79.6688 77.2319 81.3479" fill="#F82B60"/>
<path d="M77.2319 81.3467L55.273 91.9229L1.41754 46.6279C1.75075 46.2971 2.12868 46.015 2.54036 45.7888C3.64714 45.1258 5.22713 44.9488 6.57051 45.4788L76.8631 73.2608C80.4362 74.675 80.7169 79.6688 77.2319 81.3479" fill="black" fill-opacity="0.25"/>
</g>
<defs>
<clipPath id="clip0_35_24">
<rect width="179.618" height="150" fill="white"/>
</clipPath>
</defs>
</svg>
