<svg width="151" height="150" viewBox="0 0 151 150" fill="none" xmlns="http://www.w3.org/2000/svg">
<path fill-rule="evenodd" clip-rule="evenodd" d="M28.849 26.6943C33.4905 30.4653 35.2317 30.1776 43.9476 29.596L126.116 24.6622C127.859 24.6622 126.41 22.9236 125.828 22.6347L112.182 12.7694C109.567 10.7393 106.084 8.41448 99.4068 8.99606L19.843 14.7992C16.9413 15.0869 16.3618 16.5377 17.5173 17.7006L28.849 26.6943ZM33.7823 45.8437V132.299C33.7823 136.946 36.1042 138.684 41.3301 138.396L131.633 133.171C136.862 132.884 137.444 129.688 137.444 125.913V40.0379C137.444 36.2696 135.995 34.2374 132.794 34.5275L38.4264 40.0379C34.9437 40.3306 33.782 42.0727 33.782 45.8437H33.7823ZM122.929 50.4813C123.508 53.095 122.929 55.7063 120.311 56.0002L115.96 56.8671V120.694C112.182 122.724 108.698 123.885 105.796 123.885C101.148 123.885 99.984 122.434 96.5027 118.084L68.0423 73.4049V116.633L77.0483 118.665C77.0483 118.665 77.0483 123.885 69.7823 123.885L49.7516 125.047C49.1698 123.885 49.7516 120.986 51.7835 120.406L57.0106 118.957V61.8007L49.7531 61.2191C49.1709 58.6054 50.6206 54.8368 54.6887 54.5444L76.177 53.0959L105.796 98.3568V58.3177L98.2439 57.4511C97.6644 54.2558 99.984 51.9356 102.888 51.6479L122.929 50.4813ZM13.1627 6.96627L95.9217 0.871638C106.085 1.104e-05 108.7 0.583933 115.087 5.2239L141.505 23.7917C145.864 26.9846 147.317 27.8539 147.317 31.3345V133.171C147.317 139.553 144.992 143.328 136.863 143.905L40.755 149.709C34.653 150 31.749 149.13 28.5534 145.066L9.099 119.825C5.61337 115.179 4.1637 111.703 4.1637 107.636V17.117C4.1637 11.8978 6.4894 7.54403 13.1627 6.96627V6.96627Z" fill="black"/>
</svg>
