<svg width="161" height="157" viewBox="0 0 161 157" fill="none" xmlns="http://www.w3.org/2000/svg">
<g clip-path="url(#clip0_35_191)" filter="url(#filter0_d_35_191)">
<path d="M91.6959 148.53C127.369 148.53 156.288 120.614 156.288 86.1773C156.288 51.7406 127.369 23.8239 91.6959 23.8239C56.0225 23.8239 27.1033 51.7406 27.1033 86.1773C27.1033 120.614 56.0225 148.53 91.6959 148.53Z" fill="black"/>
<path d="M75.026 135.464C112.546 135.464 143.179 106.071 143.179 69.549C143.179 33.0271 112.546 3.63428 75.026 3.63428C37.5066 3.63428 6.87268 33.0271 6.87268 69.549C6.87268 106.071 37.5066 135.464 75.026 135.464Z" fill="#FF90E8" stroke="black" stroke-width="1.5625"/>
<path d="M69.8998 102.803C50.8259 102.803 39.6062 87.392 39.6062 68.2219C39.6062 48.2994 51.9477 32.1365 75.509 32.1365C99.819 32.1365 108.046 48.6758 108.42 58.0725H90.8429C90.4693 52.8103 85.981 44.9167 75.1354 44.9167C63.542 44.9167 56.0619 55.0657 56.0619 67.4701C56.0619 79.8744 63.542 90.0229 75.1354 90.0229C85.6074 90.0229 90.0952 81.7535 91.9652 73.4845H75.1354V66.7182H110.45V101.3H94.9571V79.4981C93.8348 87.392 88.9729 102.803 69.8998 102.803Z" fill="black"/>
</g>
<defs>
<filter id="filter0_d_35_191" x="-3.7124" y="0" width="164" height="158" filterUnits="userSpaceOnUse" color-interpolation-filters="sRGB">
<feFlood flood-opacity="0" result="BackgroundImageFix"/>
<feColorMatrix in="SourceAlpha" type="matrix" values="0 0 0 0 0 0 0 0 0 0 0 0 0 0 0 0 0 0 127 0" result="hardAlpha"/>
<feOffset dy="4"/>
<feGaussianBlur stdDeviation="2"/>
<feComposite in2="hardAlpha" operator="out"/>
<feColorMatrix type="matrix" values="0 0 0 0 0 0 0 0 0 0 0 0 0 0 0 0 0 0 0.25 0"/>
<feBlend mode="normal" in2="BackgroundImageFix" result="effect1_dropShadow_35_191"/>
<feBlend mode="normal" in="SourceGraphic" in2="effect1_dropShadow_35_191" result="shape"/>
</filter>
<clipPath id="clip0_35_191">
<rect width="156" height="150" fill="white" transform="translate(0.287598)"/>
</clipPath>
</defs>
</svg>
