<svg width="160" height="158" viewBox="0 0 160 158" fill="none" xmlns="http://www.w3.org/2000/svg">
<g clip-path="url(#clip0_35_190)" filter="url(#filter0_d_35_190)">
<path d="M134.857 82.5414C134.857 83.8789 134.33 85.1612 133.392 86.1066C132.454 87.052 131.182 87.5836 129.855 87.5836C128.528 87.5836 127.255 87.052 126.317 86.1066C125.379 85.1612 124.852 83.8789 124.852 82.5414V37.5002C124.852 36.1631 125.379 34.8807 126.317 33.9353C127.255 32.9897 128.528 32.4586 129.855 32.4586C131.182 32.4586 132.454 32.9897 133.392 33.9353C134.33 34.8807 134.857 36.1631 134.857 37.5002V82.5414ZM133.12 113.75C132.459 114.416 113.855 130.041 79.7481 130.041C45.641 130.041 27.161 114.5 26.3756 113.833C25.8806 113.412 25.4728 112.897 25.1757 112.318C24.8786 111.738 24.6979 111.105 24.6442 110.454C24.5904 109.804 24.6645 109.149 24.8623 108.528C25.0601 107.907 25.3777 107.33 25.7967 106.833C26.6602 105.826 27.8835 105.205 29.2001 105.103C30.5167 105.001 31.8196 105.429 32.8249 106.291C33.1143 106.5 49.7338 120.083 79.7066 120.083C109.68 120.083 126.423 106.416 126.589 106.291C127.605 105.436 128.913 105.014 130.232 105.116C131.553 105.217 132.782 105.833 133.658 106.833C134.501 107.825 134.922 109.112 134.83 110.415C134.737 111.718 134.138 112.932 133.162 113.791L133.12 113.75ZM24.5979 37.5002C24.6726 36.1589 25.2712 34.9018 26.2628 34.004C27.2544 33.1061 28.5583 32.6404 29.8896 32.7086C31.1238 32.7792 32.2883 33.3079 33.1586 34.1927C34.0289 35.0775 34.5433 36.2558 34.6026 37.5002V82.4586C34.6026 83.7954 34.0756 85.0776 33.1375 86.023C32.1993 86.9691 30.9269 87.5 29.6002 87.5C28.2735 87.5 27.0012 86.9691 26.063 86.023C25.1249 85.0776 24.5979 83.7954 24.5979 82.4586V37.5002ZM49.6925 27.5003C49.7672 26.1589 50.3658 24.9019 51.3574 24.0041C52.349 23.1062 53.6529 22.6405 54.9842 22.7086C56.2184 22.7793 57.3829 23.308 58.2532 24.1928C59.1235 25.0776 59.6379 26.2558 59.6972 27.5003V94.1664C59.6972 95.5039 59.1702 96.7862 58.2321 97.7316C57.2939 98.677 56.0215 99.2079 54.6948 99.2079C53.3681 99.2079 52.0958 98.677 51.1576 97.7316C50.2195 96.7862 49.6925 95.5039 49.6925 94.1664V27.5003ZM74.9112 25.0003C74.9112 23.6632 75.4382 22.3808 76.3763 21.4353C77.3145 20.4898 78.5869 19.9586 79.9132 19.9586C81.2402 19.9586 82.5125 20.4898 83.4507 21.4353C84.3888 22.3808 84.9158 23.6632 84.9158 25.0003V97.5C84.9158 98.8368 84.3888 100.119 83.4507 101.065C82.5125 102.011 81.2402 102.541 79.9132 102.541C78.5869 102.541 77.3145 102.011 76.3763 101.065C75.4382 100.119 74.9112 98.8368 74.9112 97.5V25.0003ZM99.7165 27.5003C99.7165 26.1632 100.243 24.8808 101.182 23.9353C102.12 22.9898 103.392 22.4586 104.718 22.4586C106.045 22.4586 107.318 22.9898 108.256 23.9353C109.194 24.8808 109.721 26.1632 109.721 27.5003V94.1664C109.721 95.5039 109.194 96.7862 108.256 97.7316C107.318 98.677 106.045 99.2079 104.718 99.2079C103.392 99.2079 102.12 98.677 101.182 97.7316C100.243 96.7862 99.7165 95.5039 99.7165 94.1664V27.5003ZM136.221 0.000416074H23.4402C20.9828 -0.0160467 18.5463 0.456179 16.2702 1.39005C13.9941 2.32393 11.9231 3.70112 10.1758 5.44276C8.42856 7.18441 7.0393 9.25625 6.0876 11.5398C5.1359 13.8233 4.64046 16.2736 4.62964 18.7503V131.25C4.64046 133.726 5.1359 136.177 6.0876 138.461C7.0393 140.743 8.42856 142.816 10.1758 144.557C11.9231 146.299 13.9941 147.676 16.2702 148.61C18.5463 149.544 20.9828 150.016 23.4402 149.999H136.221C138.675 150.016 141.109 149.545 143.382 148.614C145.655 147.683 147.724 146.309 149.471 144.572C151.218 142.835 152.608 140.768 153.562 138.489C154.516 136.211 155.016 133.764 155.032 131.291V18.7503C155.021 16.2771 154.527 13.8303 153.578 11.5495C152.629 9.26868 151.243 7.19868 149.5 5.45756C147.757 3.71647 145.691 2.33841 143.42 1.40207C141.149 0.465732 138.716 -0.0105516 136.263 0.000416074" fill="#081D34"/>
</g>
<defs>
<filter id="filter0_d_35_190" x="0.629639" y="0" width="158.658" height="158" filterUnits="userSpaceOnUse" color-interpolation-filters="sRGB">
<feFlood flood-opacity="0" result="BackgroundImageFix"/>
<feColorMatrix in="SourceAlpha" type="matrix" values="0 0 0 0 0 0 0 0 0 0 0 0 0 0 0 0 0 0 127 0" result="hardAlpha"/>
<feOffset dy="4"/>
<feGaussianBlur stdDeviation="2"/>
<feComposite in2="hardAlpha" operator="out"/>
<feColorMatrix type="matrix" values="0 0 0 0 0 0 0 0 0 0 0 0 0 0 0 0 0 0 0.25 0"/>
<feBlend mode="normal" in2="BackgroundImageFix" result="effect1_dropShadow_35_190"/>
<feBlend mode="normal" in="SourceGraphic" in2="effect1_dropShadow_35_190" result="shape"/>
</filter>
<clipPath id="clip0_35_190">
<rect width="150.658" height="150" fill="white" transform="translate(4.62964)"/>
</clipPath>
</defs>
</svg>
