<svg width="163" height="155" viewBox="0 0 163 155" fill="none" xmlns="http://www.w3.org/2000/svg">
<g filter="url(#filter0_d_35_189)">
<path d="M150.357 4.54541L90.6301 48.7272L101.766 22.6818L150.357 4.54541Z" fill="#E17726" stroke="#E17726" stroke-width="0.25" stroke-linecap="round" stroke-linejoin="round"/>
<path d="M12.6297 4.54541L71.8114 49.0909L61.2205 22.7272L12.6297 4.54541ZM128.857 106.955L112.948 131.227L146.993 140.591L156.721 107.5L128.857 106.955ZM6.31152 107.5L15.9933 140.591L49.9478 131.227L34.1297 106.955L6.31152 107.5Z" fill="#E27625" stroke="#E27625" stroke-width="0.25" stroke-linecap="round" stroke-linejoin="round"/>
<path d="M48.1292 65.9541L38.6746 80.2269L72.311 81.7723L71.2201 45.545L48.1292 65.9996V65.9541ZM114.856 65.9996L91.4019 45.0906L90.6292 81.7723L124.266 80.2269L114.856 65.9996ZM49.9473 131.227L70.3564 121.409L52.811 107.772L49.9473 131.227ZM92.6746 121.363L112.947 131.227L110.22 107.727L92.6746 121.363Z" fill="#E27625" stroke="#E27625" stroke-width="0.25" stroke-linecap="round" stroke-linejoin="round"/>
<path d="M112.948 131.227L92.6755 121.409L94.3119 134.591L94.1301 140.182L112.948 131.227ZM49.9482 131.227L68.8573 140.182L68.721 134.591L70.3573 121.409L49.9482 131.227Z" fill="#D5BFB2" stroke="#D5BFB2" stroke-width="0.25" stroke-linecap="round" stroke-linejoin="round"/>
<path d="M69.1746 99L52.3564 94.0909L64.2655 88.6364L69.2201 99H69.1746ZM93.7655 99L98.7655 88.5909L110.72 94.0455L93.7655 99.0455V99Z" fill="#233447" stroke="#233447" stroke-width="0.25" stroke-linecap="round" stroke-linejoin="round"/>
<path d="M49.9473 131.227L52.9019 106.954L34.1291 107.5L49.9473 131.227ZM110.084 106.954L112.947 131.227L128.856 107.5L110.084 106.954ZM124.311 80.2268L90.6746 81.7723L93.7655 99.045L98.7655 88.5904L110.72 94.045L124.311 80.2268ZM52.3564 94.0904L64.2655 88.6359L69.22 98.9995L72.3564 81.7268L38.72 80.2268L52.3564 94.0904Z" fill="#CC6228" stroke="#CC6228" stroke-width="0.25" stroke-linecap="round" stroke-linejoin="round"/>
<path d="M38.7201 80.2268L52.811 107.727L52.3565 94.0904L38.7201 80.2268ZM110.72 94.0904L110.175 107.727L124.266 80.2268L110.72 94.0904ZM72.3565 81.7723L69.1746 99.045L73.1746 119.409L74.0837 92.545L72.3565 81.7723ZM90.6292 81.7723L88.9928 92.4995L89.811 119.409L93.7655 98.9995L90.6292 81.7268V81.7723Z" fill="#E27525" stroke="#E27525" stroke-width="0.25" stroke-linecap="round" stroke-linejoin="round"/>
<path d="M93.7655 99L89.811 119.409L92.6746 121.409L110.175 107.772L110.72 94.0909L93.7655 99ZM52.3564 94.0909L52.811 107.727L70.3564 121.364L73.1746 119.409L69.2201 99L52.311 94.0909H52.3564Z" fill="#F5841F" stroke="#F5841F" stroke-width="0.25" stroke-linecap="round" stroke-linejoin="round"/>
<path d="M94.1755 140.182L94.3119 134.591L92.7664 133.319H70.221L68.721 134.591L68.8573 140.182L49.9482 131.228L56.5846 136.682L69.9937 145.91H92.9482L106.403 136.637L112.948 131.228L94.1301 140.182H94.1755Z" fill="#C0AC9D" stroke="#C0AC9D" stroke-width="0.25" stroke-linecap="round" stroke-linejoin="round"/>
<path d="M92.6751 121.364L89.8114 119.409H73.1751L70.3569 121.409L68.7205 134.591L70.2205 133.318H92.766L94.3114 134.591L92.6751 121.409V121.364Z" fill="#161616" stroke="#161616" stroke-width="0.25" stroke-linecap="round" stroke-linejoin="round"/>
<path d="M152.902 51.5909L157.902 27.2727L150.357 4.54541L92.6296 47.2727L114.857 65.9545L146.221 75.0909L153.13 67.0454L150.13 64.8636L154.902 60.5L151.266 57.6818L156.039 54.0454L152.857 51.5909H152.902ZM5.08417 27.2272L10.1751 51.5909L6.90235 54L11.766 57.6363L8.12962 60.5L12.8569 64.8636L9.85689 67.0454L16.766 75.0909L48.1296 66L70.3569 47.2272L12.6296 4.54541L5.08417 27.2272Z" fill="#763E1A" stroke="#763E1A" stroke-width="0.25" stroke-linecap="round" stroke-linejoin="round"/>
<path d="M146.221 75.0909L114.857 66L124.311 80.2273L110.221 107.727L128.857 107.5H156.721L146.221 75.0909ZM48.1296 65.9545L16.7661 75.0909L6.31152 107.5H34.1752L52.8114 107.727L38.7206 80.2273L48.1751 65.9545H48.1296ZM90.6296 81.7727L92.6751 47.2273L101.766 22.6818H61.2205L70.3114 47.2273L72.3569 81.7727L73.1296 92.5909V119.409H89.8114L89.9024 92.5909L90.6296 81.7727Z" fill="#F5841F" stroke="#F5841F" stroke-width="0.25" stroke-linecap="round" stroke-linejoin="round"/>
</g>
<defs>
<filter id="filter0_d_35_189" x="-3.4613" y="0" width="167.091" height="158" filterUnits="userSpaceOnUse" color-interpolation-filters="sRGB">
<feFlood flood-opacity="0" result="BackgroundImageFix"/>
<feColorMatrix in="SourceAlpha" type="matrix" values="0 0 0 0 0 0 0 0 0 0 0 0 0 0 0 0 0 0 127 0" result="hardAlpha"/>
<feOffset dy="4"/>
<feGaussianBlur stdDeviation="2"/>
<feComposite in2="hardAlpha" operator="out"/>
<feColorMatrix type="matrix" values="0 0 0 0 0 0 0 0 0 0 0 0 0 0 0 0 0 0 0.25 0"/>
<feBlend mode="normal" in2="BackgroundImageFix" result="effect1_dropShadow_35_189"/>
<feBlend mode="normal" in="SourceGraphic" in2="effect1_dropShadow_35_189" result="shape"/>
</filter>
</defs>
</svg>
