<svg width="133" height="155" viewBox="0 0 133 155" fill="none" xmlns="http://www.w3.org/2000/svg">
<g clip-path="url(#clip0_35_188)" filter="url(#filter0_d_35_188)">
<path d="M39.8902 141.07L42.4209 124.995L36.7838 124.865H9.86603L28.5725 6.25356C28.6305 5.8955 28.8193 5.56163 29.0951 5.32453C29.3709 5.08743 29.7241 4.95679 30.0918 4.95679H75.4791C90.5468 4.95679 100.945 8.09227 106.374 14.281C108.919 17.1842 110.54 20.2181 111.324 23.5568C112.147 27.06 112.161 31.2455 111.358 36.3503L111.3 36.7229V39.9939L113.845 41.4358C115.989 42.5729 117.692 43.8745 118.998 45.3649C121.176 47.8471 122.584 51.0019 123.179 54.7422C123.794 58.589 123.59 63.1664 122.584 68.3487C121.423 74.31 119.545 79.5019 117.01 83.7503C114.677 87.6648 111.706 90.9116 108.179 93.4277C104.811 95.818 100.81 97.6326 96.2855 98.7938C91.9017 99.9358 86.9033 100.512 81.421 100.512H77.8888C75.3629 100.512 72.9097 101.421 70.9839 103.052C69.0533 104.716 67.7759 106.991 67.3839 109.478L67.1178 110.924L62.6468 139.255L62.4436 140.295C62.3904 140.624 62.2984 140.789 62.1629 140.9C62.042 141.002 61.8678 141.07 61.6984 141.07H39.8902Z" fill="#253B80"/>
<path d="M116.255 37.0984C116.119 37.9645 115.965 38.85 115.79 39.7597C109.805 70.4904 89.3275 81.1065 63.1743 81.1065H49.8582C46.6598 81.1065 43.9647 83.4291 43.4663 86.5839L36.6485 129.823L34.7179 142.079C34.3937 144.15 35.9905 146.018 38.0808 146.018H61.6984C64.4952 146.018 66.871 143.986 67.3113 141.227L67.5436 140.027L71.9904 111.808L72.2759 110.26C72.7113 107.492 75.092 105.46 77.8888 105.46H81.421C104.303 105.46 122.216 96.1694 127.452 69.2855C129.639 58.0549 128.507 48.6775 122.719 42.0823C120.968 40.0936 118.795 38.4435 116.255 37.0984Z" fill="#179BD7"/>
<path d="M109.994 34.6018C109.079 34.3356 108.136 34.0937 107.168 33.876C106.195 33.663 105.198 33.4743 104.173 33.3098C100.582 32.7292 96.6484 32.4534 92.4339 32.4534H56.8597C55.9839 32.4534 55.1517 32.6518 54.4065 33.0098C52.7662 33.7985 51.5469 35.3518 51.2517 37.2534L43.6839 85.1855L43.4662 86.5839C43.9646 83.429 46.6597 81.1065 49.8581 81.1065H63.1743C89.3275 81.1065 109.805 70.4855 115.79 39.7598C115.969 38.8501 116.119 37.9647 116.255 37.0985C114.74 36.2953 113.1 35.6082 111.334 35.0227C110.898 34.8776 110.448 34.7372 109.994 34.6018Z" fill="#222D65"/>
<path d="M51.2516 37.2532C51.5468 35.3516 52.7661 33.7984 54.4065 33.0145C55.1565 32.6565 55.9839 32.4581 56.8597 32.4581H92.4339C96.6484 32.4581 100.582 32.7339 104.173 33.3145C105.198 33.479 106.195 33.6677 107.168 33.8806C108.136 34.0984 109.079 34.3403 109.994 34.6065C110.448 34.7419 110.898 34.8823 111.339 35.0226C113.105 35.6081 114.745 36.3 116.26 37.0984C118.04 25.7419 116.245 18.0097 110.105 11.0081C103.336 3.3 91.1178 0 75.4839 0H30.0968C26.9032 0 24.179 2.32258 23.6855 5.48226L4.78063 125.313C4.40805 127.684 6.23709 129.823 8.62741 129.823H36.6484L43.6839 85.1855L51.2516 37.2532Z" fill="#253B80"/>
</g>
<defs>
<filter id="filter0_d_35_188" x="0.7323" y="0" width="133.806" height="158" filterUnits="userSpaceOnUse" color-interpolation-filters="sRGB">
<feFlood flood-opacity="0" result="BackgroundImageFix"/>
<feColorMatrix in="SourceAlpha" type="matrix" values="0 0 0 0 0 0 0 0 0 0 0 0 0 0 0 0 0 0 127 0" result="hardAlpha"/>
<feOffset dy="4"/>
<feGaussianBlur stdDeviation="2"/>
<feComposite in2="hardAlpha" operator="out"/>
<feColorMatrix type="matrix" values="0 0 0 0 0 0 0 0 0 0 0 0 0 0 0 0 0 0 0.25 0"/>
<feBlend mode="normal" in2="BackgroundImageFix" result="effect1_dropShadow_35_188"/>
<feBlend mode="normal" in="SourceGraphic" in2="effect1_dropShadow_35_188" result="shape"/>
</filter>
<clipPath id="clip0_35_188">
<rect width="125.806" height="150" fill="white" transform="translate(4.7323)"/>
</clipPath>
</defs>
</svg>
