<svg width="158" height="158" viewBox="0 0 158 158" fill="none" xmlns="http://www.w3.org/2000/svg">
<g clip-path="url(#clip0_35_185)" filter="url(#filter0_d_35_185)">
<path d="M35.8583 94.4883C35.8583 103.11 28.8898 110.079 20.2677 110.079C11.6457 110.079 4.67719 103.11 4.67719 94.4883C4.67719 85.8662 11.6457 78.8977 20.2677 78.8977H35.8583V94.4883ZM43.6536 94.4883C43.6536 85.8662 50.6221 78.8977 59.2441 78.8977C67.8662 78.8977 74.8347 85.8662 74.8347 94.4883V133.465C74.8347 142.087 67.8662 149.055 59.2441 149.055C50.6221 149.055 43.6536 142.087 43.6536 133.465V94.4883Z" fill="#E01E5A"/>
<path d="M59.2441 31.8897C50.6221 31.8897 43.6536 24.9212 43.6536 16.2992C43.6536 7.67712 50.6221 0.708618 59.2441 0.708618C67.8662 0.708618 74.8347 7.67712 74.8347 16.2992V31.8897H59.2441ZM59.2441 39.8031C67.8662 39.8031 74.8347 46.7716 74.8347 55.3937C74.8347 64.0157 67.8662 70.9842 59.2441 70.9842H20.1496C11.5276 70.9842 4.55907 64.0157 4.55907 55.3937C4.55907 46.7716 11.5276 39.8031 20.1496 39.8031H59.2441Z" fill="#36C5F0"/>
<path d="M121.724 55.3937C121.724 46.7716 128.693 39.8031 137.315 39.8031C145.937 39.8031 152.906 46.7716 152.906 55.3937C152.906 64.0157 145.937 70.9842 137.315 70.9842H121.724V55.3937ZM113.929 55.3937C113.929 64.0157 106.961 70.9842 98.3386 70.9842C89.7165 70.9842 82.748 64.0157 82.748 55.3937V16.2992C82.748 7.67712 89.7165 0.708618 98.3386 0.708618C106.961 0.708618 113.929 7.67712 113.929 16.2992V55.3937V55.3937Z" fill="#2EB67D"/>
<path d="M98.3386 117.874C106.961 117.874 113.929 124.843 113.929 133.465C113.929 142.087 106.961 149.055 98.3386 149.055C89.7165 149.055 82.748 142.087 82.748 133.465V117.874H98.3386ZM98.3386 110.079C89.7165 110.079 82.748 103.11 82.748 94.4883C82.748 85.8662 89.7165 78.8977 98.3386 78.8977H137.433C146.055 78.8977 153.024 85.8662 153.024 94.4883C153.024 103.11 146.055 110.079 137.433 110.079H98.3386Z" fill="#ECB22E"/>
</g>
<defs>
<filter id="filter0_d_35_185" x="-0.2677" y="0" width="158" height="158" filterUnits="userSpaceOnUse" color-interpolation-filters="sRGB">
<feFlood flood-opacity="0" result="BackgroundImageFix"/>
<feColorMatrix in="SourceAlpha" type="matrix" values="0 0 0 0 0 0 0 0 0 0 0 0 0 0 0 0 0 0 127 0" result="hardAlpha"/>
<feOffset dy="4"/>
<feGaussianBlur stdDeviation="2"/>
<feComposite in2="hardAlpha" operator="out"/>
<feColorMatrix type="matrix" values="0 0 0 0 0 0 0 0 0 0 0 0 0 0 0 0 0 0 0.25 0"/>
<feBlend mode="normal" in2="BackgroundImageFix" result="effect1_dropShadow_35_185"/>
<feBlend mode="normal" in="SourceGraphic" in2="effect1_dropShadow_35_185" result="shape"/>
</filter>
<clipPath id="clip0_35_185">
<rect width="150" height="150" fill="white" transform="translate(3.7323)"/>
</clipPath>
</defs>
</svg>
