<svg width="125" height="158" viewBox="0 0 125 158" fill="none" xmlns="http://www.w3.org/2000/svg">
<g clip-path="url(#clip0_35_184)" filter="url(#filter0_d_35_184)">
<path d="M27.5433 0.157471H97.7205C110.811 0.157471 121.106 10.4527 120.614 23.0906V99.8229C120.614 112.441 110.339 122.736 97.7008 122.736H82.2677L90.6929 149.862L50.0039 122.736H27.563C14.4725 122.736 4.17713 112.441 4.17713 99.3504V23.1103C4.1575 10.4527 14.4528 0.157471 27.5433 0.157471ZM54.8071 84.3701C52.4252 83.0512 50.5157 81.1418 49.0787 78.6221C47.6417 76.1024 46.9331 73.0709 46.9331 69.5473V28.6614C46.9331 28.0315 46.7953 27.5394 46.5 27.2244C46.2244 26.8898 45.752 26.7323 45.0827 26.7323H34.6299C34.3937 26.7323 34.1575 26.7717 33.9409 26.8701C33.7244 26.9685 33.5276 27.1063 33.3898 27.3032C33.0551 27.6772 32.8779 28.1693 32.8976 28.6811V69.3898C32.8976 75.9055 34.2362 81.3583 36.9134 85.7874C39.5905 90.1969 43.1732 93.4843 47.7008 95.6496C52.2087 97.815 57.248 98.878 62.7992 98.878C68.3701 98.878 73.4094 97.815 77.9173 95.7087C82.4252 93.6024 86.0079 90.3544 88.685 85.9449C91.3622 81.5355 92.7008 76.063 92.7008 69.5276V28.7008C92.7008 28.4449 92.6614 28.189 92.563 27.9331C92.4646 27.6969 92.3268 27.4607 92.1496 27.2835C91.7756 26.9095 91.2835 26.7126 90.6535 26.7126H80.6929C80.1024 26.7126 79.6102 26.8898 79.2559 27.2638C78.8819 27.6378 78.7047 28.1103 78.7047 28.7008V69.5473C78.7047 72.8347 77.9961 75.7677 76.5787 78.3071C75.1614 80.8662 73.252 82.8347 70.8307 84.2323C68.4094 85.63 65.7323 86.3189 62.8189 86.3189C59.8464 86.3386 57.189 85.689 54.8071 84.3701Z" fill="#2B52FD"/>
</g>
<defs>
<filter id="filter0_d_35_184" x="0" y="0" width="124.732" height="158" filterUnits="userSpaceOnUse" color-interpolation-filters="sRGB">
<feFlood flood-opacity="0" result="BackgroundImageFix"/>
<feColorMatrix in="SourceAlpha" type="matrix" values="0 0 0 0 0 0 0 0 0 0 0 0 0 0 0 0 0 0 127 0" result="hardAlpha"/>
<feOffset dy="4"/>
<feGaussianBlur stdDeviation="2"/>
<feComposite in2="hardAlpha" operator="out"/>
<feColorMatrix type="matrix" values="0 0 0 0 0 0 0 0 0 0 0 0 0 0 0 0 0 0 0.25 0"/>
<feBlend mode="normal" in2="BackgroundImageFix" result="effect1_dropShadow_35_184"/>
<feBlend mode="normal" in="SourceGraphic" in2="effect1_dropShadow_35_184" result="shape"/>
</filter>
<clipPath id="clip0_35_184">
<rect width="116.732" height="150" fill="white" transform="translate(4)"/>
</clipPath>
</defs>
</svg>
