<svg width="159" height="158" viewBox="0 0 159 158" fill="none" xmlns="http://www.w3.org/2000/svg">
<g clip-path="url(#clip0_35_187)" filter="url(#filter0_d_35_187)">
<path d="M79.4614 37.5C79.4614 16.7893 96.2509 0 116.961 0C137.672 0 154.461 16.7893 154.461 37.5C154.461 58.2105 137.672 75 116.961 75C96.2509 75 79.4614 58.2105 79.4614 37.5Z" fill="#158D71"/>
<path d="M4.46143 75H79.4614V112.5C79.4614 133.21 62.6719 150 41.9614 150C21.2508 150 4.46143 133.21 4.46143 112.5V75Z" fill="#158D71"/>
<path d="M79.4614 112.5C79.4614 91.7895 96.2509 75 116.961 75C137.672 75 154.461 91.7895 154.461 112.5V150H79.4614V112.5Z" fill="#011936"/>
<path d="M4.46143 37.5C4.46143 16.7893 21.2508 0 41.9614 0C62.6719 0 79.4614 16.7893 79.4614 37.5C79.4614 58.2105 62.6719 75 41.9614 75C21.2508 75 4.46143 58.2105 4.46143 37.5Z" fill="#011936"/>
</g>
<defs>
<filter id="filter0_d_35_187" x="0.461426" y="0" width="158" height="158" filterUnits="userSpaceOnUse" color-interpolation-filters="sRGB">
<feFlood flood-opacity="0" result="BackgroundImageFix"/>
<feColorMatrix in="SourceAlpha" type="matrix" values="0 0 0 0 0 0 0 0 0 0 0 0 0 0 0 0 0 0 127 0" result="hardAlpha"/>
<feOffset dy="4"/>
<feGaussianBlur stdDeviation="2"/>
<feComposite in2="hardAlpha" operator="out"/>
<feColorMatrix type="matrix" values="0 0 0 0 0 0 0 0 0 0 0 0 0 0 0 0 0 0 0.25 0"/>
<feBlend mode="normal" in2="BackgroundImageFix" result="effect1_dropShadow_35_187"/>
<feBlend mode="normal" in="SourceGraphic" in2="effect1_dropShadow_35_187" result="shape"/>
</filter>
<clipPath id="clip0_35_187">
<rect width="150" height="150" fill="white" transform="translate(4.46143)"/>
</clipPath>
</defs>
</svg>
